<svg width="538" height="371" viewBox="0 0 538 371" fill="none" xmlns="http://www.w3.org/2000/svg">
<path d="M0.944312 135.931V149H3.91284V143.81H9.62586V141.084H3.91284V138.657H10.7087V135.931H0.944312ZM14.7368 149V139.292H11.9363V149H14.7368ZM12.0856 138.115C12.4217 138.433 12.8324 138.601 13.3365 138.601C13.8406 138.601 14.2514 138.433 14.5687 138.115C14.9048 137.798 15.0728 137.387 15.0728 136.883C15.0728 136.379 14.9048 135.968 14.5687 135.651C14.2514 135.334 13.8406 135.166 13.3365 135.166C12.8324 135.166 12.4217 135.334 12.0856 135.651C11.7682 135.968 11.6002 136.379 11.6002 136.883C11.6002 137.387 11.7682 137.798 12.0856 138.115ZM19.1126 139.292H16.3121V149H19.1126V143.772C19.1126 142.634 19.9527 141.775 21.0729 141.775C21.4836 141.775 21.8197 141.868 22.0811 142.036V139.049C20.7555 139.049 19.766 139.46 19.1126 140.3V139.292ZM30.5656 141.7C30.3229 140.038 28.9413 139.049 26.6822 139.049C24.3111 139.049 22.7429 140.02 22.7429 142.167C22.7429 143.604 23.4897 144.463 25.3006 144.967L27.0743 145.49C27.7277 145.677 28.0451 145.919 28.0451 146.237C28.0451 146.685 27.5224 146.946 26.7756 146.946C25.8607 146.946 25.3006 146.629 25.1139 145.975L22.5375 146.33C22.8175 148.179 24.2738 149.243 26.7196 149.243C29.128 149.243 30.7149 148.16 30.7149 146.125C30.7149 144.65 29.9121 143.754 27.9518 143.138L26.2155 142.578C25.7114 142.391 25.45 142.167 25.45 141.924C25.45 141.495 25.8234 141.289 26.5515 141.289C27.3543 141.289 27.8398 141.569 28.0078 142.111L30.5656 141.7ZM31.3025 141.719H32.628V145.901C32.628 146.778 32.9454 147.525 33.5989 148.123C34.2523 148.701 35.0738 149 36.026 149H37.6316V146.386H36.4927C35.8766 146.386 35.4285 145.957 35.4285 145.359V141.719H37.6316V139.292H35.4285V137.406H32.628V139.292H31.3025V141.719ZM52.7222 138.75C52.4795 137.873 51.9381 137.145 51.0606 136.566C50.2018 135.987 49.1749 135.688 47.9987 135.688C46.6731 135.688 45.5903 136.062 44.7501 136.808C43.9286 137.537 43.5179 138.507 43.5179 139.702C43.5179 140.468 43.7606 141.14 44.0407 141.607C44.3207 142.073 44.9742 142.522 45.3662 142.802C45.5716 142.932 45.8703 143.063 46.2624 143.231L47.1772 143.567C47.4013 143.623 47.7373 143.735 48.1667 143.866L48.3534 143.922C49.1002 144.164 49.5483 144.314 49.9777 144.687C50.2018 144.874 50.3138 145.079 50.3138 145.322C50.3138 146.013 49.455 146.517 48.3908 146.517C47.2146 146.517 46.3184 145.938 46.113 145.191L43.1445 145.901C43.4245 146.89 44.022 147.693 44.9742 148.309C45.9263 148.925 47.0652 149.243 48.3908 149.243C49.8284 149.243 51.0046 148.869 51.9194 148.104C52.8342 147.338 53.2823 146.33 53.2823 145.061C53.2076 143.455 52.5728 142.54 51.49 141.961C50.7432 141.513 50.3324 141.383 49.5296 141.14C48.4841 140.823 47.8307 140.617 47.5693 140.524C46.8412 140.225 46.4864 139.87 46.4864 139.478C46.4864 138.862 47.1585 138.414 48.0547 138.414C48.9322 138.414 49.623 138.862 49.791 139.441L52.7222 138.75ZM53.7466 141.719H55.0721V145.901C55.0721 146.778 55.3895 147.525 56.043 148.123C56.6964 148.701 57.5179 149 58.4701 149H60.0757V146.386H58.9368C58.3207 146.386 57.8726 145.957 57.8726 145.359V141.719H60.0757V139.292H57.8726V137.406H55.0721V139.292H53.7466V141.719ZM71.1314 145.154C71.2061 144.837 71.2434 144.501 71.2434 144.146C71.2434 142.708 70.758 141.495 69.7685 140.524C68.779 139.534 67.5654 139.049 66.1092 139.049C64.6342 139.049 63.4207 139.534 62.4312 140.524C61.4417 141.495 60.9563 142.708 60.9563 144.146C60.9563 145.602 61.4603 146.816 62.4685 147.786C63.4767 148.757 64.7463 149.243 66.2585 149.243C68.3309 149.243 70.0299 148.235 70.9074 146.61L68.2002 145.994C67.7148 146.573 67.08 146.853 66.2772 146.853C65.1383 146.853 64.2235 146.181 63.9061 145.154H71.1314ZM63.9248 143.082C64.2422 142.092 65.1197 141.439 66.1092 141.439C67.1547 141.439 68.0322 142.092 68.3869 143.082H63.9248ZM75.1772 153.201V148.347C75.9801 148.944 76.8575 149.243 77.8471 149.243C79.154 149.243 80.2555 148.757 81.133 147.786C82.0105 146.797 82.4585 145.583 82.4585 144.146C82.4585 142.69 82.0105 141.476 81.133 140.505C80.2555 139.534 79.154 139.049 77.8471 139.049C76.8389 139.049 75.9427 139.348 75.1772 139.945V139.292H72.3767V153.201H75.1772ZM77.3803 141.812C78.5752 141.812 79.5274 142.82 79.5274 144.164C79.5274 144.818 79.322 145.359 78.8926 145.807C78.4818 146.256 77.9777 146.48 77.3803 146.48C76.1668 146.48 75.2146 145.453 75.2146 144.164C75.2146 142.82 76.1668 141.812 77.3803 141.812Z" fill="white"/>
<path d="M186.112 3.785L184.955 4.123C184.877 3.77633 184.652 3.486 184.279 3.252C183.915 3.00933 183.486 2.888 182.992 2.888C182.446 2.888 181.996 3.02233 181.64 3.291C181.285 3.551 181.107 3.88033 181.107 4.279C181.107 4.71233 181.35 5.05033 181.835 5.293C182.217 5.475 182.802 5.66567 183.59 5.865C184.232 6.02967 184.73 6.19867 185.085 6.372C185.917 6.762 186.355 7.44233 186.398 8.413C186.398 9.22767 186.086 9.88633 185.462 10.389C184.856 10.8917 184.067 11.143 183.096 11.143C182.221 11.143 181.476 10.9393 180.86 10.532C180.245 10.1333 179.855 9.61333 179.69 8.972L180.86 8.621C180.93 9.01967 181.172 9.35333 181.588 9.622C182.013 9.882 182.516 10.012 183.096 10.012C183.703 10.012 184.21 9.87333 184.617 9.596C185.025 9.31 185.228 8.946 185.228 8.504C185.228 8.05333 185.012 7.71533 184.578 7.49C184.197 7.29067 183.759 7.13033 183.265 7.009L182.719 6.866L182.212 6.71L181.679 6.528C181.653 6.51933 181.614 6.50633 181.562 6.489C181.519 6.463 181.463 6.437 181.393 6.411C181.324 6.37633 181.263 6.346 181.211 6.32C180.995 6.216 180.739 6.02967 180.444 5.761C180.15 5.46633 179.976 4.99833 179.924 4.357C179.924 3.58567 180.21 2.96167 180.782 2.485C181.363 1.99967 182.095 1.757 182.979 1.757C183.777 1.757 184.457 1.94767 185.02 2.329C185.592 2.70167 185.956 3.187 186.112 3.785ZM194.501 7.997H188.69C188.768 8.60367 189.037 9.11067 189.496 9.518C189.947 9.91667 190.502 10.116 191.16 10.116C192.018 10.116 192.686 9.791 193.162 9.141L194.228 9.479C193.916 9.999 193.487 10.4063 192.941 10.701C192.404 10.9957 191.81 11.143 191.16 11.143C190.138 11.143 189.28 10.8093 188.586 10.142C187.902 9.466 187.559 8.62533 187.559 7.62C187.559 6.61467 187.893 5.77833 188.56 5.111C189.228 4.435 190.055 4.097 191.043 4.097C192.04 4.097 192.868 4.435 193.526 5.111C194.194 5.77833 194.527 6.61467 194.527 7.62C194.527 7.646 194.519 7.77167 194.501 7.997ZM188.703 7.113H193.396C193.292 6.53233 193.019 6.05133 192.577 5.67C192.144 5.29733 191.624 5.111 191.017 5.111C190.428 5.111 189.921 5.29733 189.496 5.67C189.072 6.04267 188.807 6.52367 188.703 7.113ZM202.317 6.138L201.225 6.463C201.026 6.073 200.735 5.76533 200.354 5.54C199.981 5.306 199.561 5.189 199.093 5.189C198.408 5.189 197.841 5.423 197.39 5.891C196.931 6.35033 196.701 6.92667 196.701 7.62C196.701 8.30467 196.931 8.88533 197.39 9.362C197.849 9.82133 198.417 10.051 199.093 10.051C199.561 10.051 199.981 9.93833 200.354 9.713C200.735 9.479 201.026 9.167 201.225 8.777L202.317 9.102C202.04 9.73467 201.611 10.233 201.03 10.597C200.458 10.961 199.812 11.143 199.093 11.143C198.096 11.143 197.256 10.8093 196.571 10.142C195.904 9.45733 195.57 8.61667 195.57 7.62C195.57 6.61467 195.904 5.77833 196.571 5.111C197.247 4.435 198.088 4.097 199.093 4.097C199.812 4.097 200.458 4.279 201.03 4.643C201.611 5.007 202.04 5.50533 202.317 6.138ZM204.353 10.142C203.686 9.45733 203.352 8.61667 203.352 7.62C203.352 6.61467 203.686 5.77833 204.353 5.111C205.029 4.435 205.87 4.097 206.875 4.097C207.881 4.097 208.721 4.435 209.397 5.111C210.073 5.77833 210.411 6.61467 210.411 7.62C210.411 8.62533 210.073 9.466 209.397 10.142C208.713 10.8093 207.872 11.143 206.875 11.143C205.879 11.143 205.038 10.8093 204.353 10.142ZM206.875 10.051C207.56 10.051 208.132 9.82133 208.591 9.362C209.051 8.88533 209.28 8.30467 209.28 7.62C209.28 6.92667 209.051 6.35033 208.591 5.891C208.132 5.423 207.56 5.189 206.875 5.189C206.191 5.189 205.623 5.423 205.172 5.891C204.713 6.35033 204.483 6.92667 204.483 7.62C204.483 8.30467 204.713 8.88533 205.172 9.362C205.632 9.82133 206.199 10.051 206.875 10.051ZM211.904 11V4.24H212.996V5.371C213.534 4.52167 214.335 4.097 215.401 4.097C216.181 4.097 216.827 4.35267 217.338 4.864C217.858 5.36667 218.118 6.008 218.118 6.788V11H217.026V7.074C217.026 6.528 216.84 6.06867 216.467 5.696C216.103 5.32333 215.648 5.137 215.102 5.137C214.513 5.137 214.015 5.32767 213.607 5.709C213.2 6.09033 212.996 6.554 212.996 7.1V11H211.904ZM222.918 4.097C223.932 4.097 224.755 4.46533 225.388 5.202V1.25H226.48V11H225.388V10.038C224.755 10.7747 223.932 11.143 222.918 11.143C221.973 11.143 221.18 10.8093 220.539 10.142C219.906 9.47467 219.59 8.634 219.59 7.62C219.59 6.606 219.906 5.76967 220.539 5.111C221.171 4.435 221.964 4.097 222.918 4.097ZM223.035 5.189C222.385 5.189 221.834 5.423 221.384 5.891C220.942 6.35033 220.721 6.92667 220.721 7.62C220.721 8.31333 220.942 8.894 221.384 9.362C221.843 9.82133 222.393 10.051 223.035 10.051C223.693 10.051 224.244 9.82133 224.686 9.362C225.136 8.90267 225.362 8.322 225.362 7.62C225.362 6.918 225.136 6.34167 224.686 5.891C224.244 5.423 223.693 5.189 223.035 5.189ZM238.049 3.785L236.892 4.123C236.814 3.77633 236.589 3.486 236.216 3.252C235.852 3.00933 235.423 2.888 234.929 2.888C234.383 2.888 233.932 3.02233 233.577 3.291C233.222 3.551 233.044 3.88033 233.044 4.279C233.044 4.71233 233.287 5.05033 233.772 5.293C234.153 5.475 234.738 5.66567 235.527 5.865C236.168 6.02967 236.667 6.19867 237.022 6.372C237.854 6.762 238.292 7.44233 238.335 8.413C238.335 9.22767 238.023 9.88633 237.399 10.389C236.792 10.8917 236.004 11.143 235.033 11.143C234.158 11.143 233.412 10.9393 232.797 10.532C232.182 10.1333 231.792 9.61333 231.627 8.972L232.797 8.621C232.866 9.01967 233.109 9.35333 233.525 9.622C233.95 9.882 234.452 10.012 235.033 10.012C235.64 10.012 236.147 9.87333 236.554 9.596C236.961 9.31 237.165 8.946 237.165 8.504C237.165 8.05333 236.948 7.71533 236.515 7.49C236.134 7.29067 235.696 7.13033 235.202 7.009L234.656 6.866L234.149 6.71L233.616 6.528C233.59 6.51933 233.551 6.50633 233.499 6.489C233.456 6.463 233.399 6.437 233.33 6.411C233.261 6.37633 233.2 6.346 233.148 6.32C232.931 6.216 232.676 6.02967 232.381 5.761C232.086 5.46633 231.913 4.99833 231.861 4.357C231.861 3.58567 232.147 2.96167 232.719 2.485C233.3 1.99967 234.032 1.757 234.916 1.757C235.713 1.757 236.394 1.94767 236.957 2.329C237.529 2.70167 237.893 3.187 238.049 3.785ZM239.119 5.202V4.24H240.211V2.888H241.303V4.24H243.188V5.202H241.303V8.881C241.303 9.18433 241.394 9.44 241.576 9.648C241.766 9.84733 242 9.947 242.278 9.947H243.188V11H242.2C241.636 11 241.164 10.8093 240.783 10.428C240.401 10.0467 240.211 9.57433 240.211 9.011V5.202H239.119ZM251.097 7.997H245.286C245.364 8.60367 245.633 9.11067 246.092 9.518C246.543 9.91667 247.097 10.116 247.756 10.116C248.614 10.116 249.281 9.791 249.758 9.141L250.824 9.479C250.512 9.999 250.083 10.4063 249.537 10.701C249 10.9957 248.406 11.143 247.756 11.143C246.733 11.143 245.875 10.8093 245.182 10.142C244.497 9.466 244.155 8.62533 244.155 7.62C244.155 6.61467 244.489 5.77833 245.156 5.111C245.823 4.435 246.651 4.097 247.639 4.097C248.636 4.097 249.463 4.435 250.122 5.111C250.789 5.77833 251.123 6.61467 251.123 7.62C251.123 7.646 251.114 7.77167 251.097 7.997ZM245.299 7.113H249.992C249.888 6.53233 249.615 6.05133 249.173 5.67C248.74 5.29733 248.22 5.111 247.613 5.111C247.024 5.111 246.517 5.29733 246.092 5.67C245.667 6.04267 245.403 6.52367 245.299 7.113ZM253.609 13.925H252.517V4.24H253.609V5.202C254.241 4.46533 255.06 4.097 256.066 4.097C257.019 4.097 257.812 4.435 258.445 5.111C259.086 5.77833 259.407 6.61467 259.407 7.62C259.407 8.61667 259.086 9.45733 258.445 10.142C257.803 10.8093 257.01 11.143 256.066 11.143C255.06 11.143 254.241 10.7747 253.609 10.038V13.925ZM255.949 5.189C255.299 5.189 254.748 5.423 254.298 5.891C253.856 6.35033 253.635 6.92667 253.635 7.62C253.635 8.31333 253.856 8.894 254.298 9.362C254.757 9.82133 255.307 10.051 255.949 10.051C256.607 10.051 257.158 9.82133 257.6 9.362C258.05 8.90267 258.276 8.322 258.276 7.62C258.276 6.918 258.05 6.34167 257.6 5.891C257.158 5.423 256.607 5.189 255.949 5.189Z" fill="white"/>
<path d="M285.104 136.992H281.698V135.9H289.68V136.992H286.274V145H285.104V136.992ZM291.005 141.178V145H289.913V138.24H291.005V139.384C291.516 138.526 292.318 138.097 293.41 138.097H293.592V139.306C293.453 139.254 293.293 139.228 293.111 139.228C292.513 139.228 292.014 139.414 291.616 139.787C291.208 140.168 291.005 140.632 291.005 141.178ZM297.447 138.097C298.461 138.097 299.285 138.465 299.917 139.202V138.24H301.009V145H299.917V144.038C299.285 144.775 298.461 145.143 297.447 145.143C296.503 145.143 295.71 144.809 295.068 144.142C294.436 143.475 294.119 142.634 294.119 141.62C294.119 140.606 294.436 139.77 295.068 139.111C295.701 138.435 296.494 138.097 297.447 138.097ZM297.564 139.189C296.914 139.189 296.364 139.423 295.913 139.891C295.471 140.35 295.25 140.927 295.25 141.62C295.25 142.313 295.471 142.894 295.913 143.362C296.373 143.821 296.923 144.051 297.564 144.051C298.223 144.051 298.773 143.821 299.215 143.362C299.666 142.903 299.891 142.322 299.891 141.62C299.891 140.918 299.666 140.342 299.215 139.891C298.773 139.423 298.223 139.189 297.564 139.189ZM305.826 138.097C306.84 138.097 307.664 138.465 308.296 139.202V135.25H309.388V145H308.296V144.038C307.664 144.775 306.84 145.143 305.826 145.143C304.882 145.143 304.089 144.809 303.447 144.142C302.815 143.475 302.498 142.634 302.498 141.62C302.498 140.606 302.815 139.77 303.447 139.111C304.08 138.435 304.873 138.097 305.826 138.097ZM305.943 139.189C305.293 139.189 304.743 139.423 304.292 139.891C303.85 140.35 303.629 140.927 303.629 141.62C303.629 142.313 303.85 142.894 304.292 143.362C304.752 143.821 305.302 144.051 305.943 144.051C306.602 144.051 307.152 143.821 307.594 143.362C308.045 142.903 308.27 142.322 308.27 141.62C308.27 140.918 308.045 140.342 307.594 139.891C307.152 139.423 306.602 139.189 305.943 139.189ZM312.32 145H311.228V138.24H312.32V145ZM311.228 137.135C311.09 136.988 311.02 136.806 311.02 136.589C311.02 136.372 311.09 136.195 311.228 136.056C311.376 135.909 311.558 135.835 311.774 135.835C311.991 135.835 312.173 135.909 312.32 136.056C312.468 136.195 312.541 136.372 312.541 136.589C312.541 136.806 312.468 136.988 312.32 137.135C312.173 137.274 311.991 137.343 311.774 137.343C311.558 137.343 311.376 137.274 311.228 137.135ZM314.161 145V138.24H315.253V139.371C315.79 138.522 316.592 138.097 317.658 138.097C318.438 138.097 319.083 138.353 319.595 138.864C320.115 139.367 320.375 140.008 320.375 140.788V145H319.283V141.074C319.283 140.528 319.096 140.069 318.724 139.696C318.36 139.323 317.905 139.137 317.359 139.137C316.769 139.137 316.271 139.328 315.864 139.709C315.456 140.09 315.253 140.554 315.253 141.1V145H314.161ZM325.174 145.143C324.229 145.143 323.436 144.809 322.795 144.142C322.162 143.475 321.846 142.634 321.846 141.62C321.846 140.606 322.162 139.77 322.795 139.111C323.428 138.435 324.221 138.097 325.174 138.097C326.188 138.097 327.011 138.465 327.644 139.202V138.24H328.736V144.714C328.736 145.676 328.407 146.473 327.748 147.106C327.081 147.747 326.27 148.068 325.317 148.068C324.658 148.068 324.039 147.903 323.458 147.574C322.895 147.245 322.483 146.829 322.223 146.326L323.315 145.975C323.497 146.27 323.766 146.508 324.121 146.69C324.485 146.881 324.871 146.976 325.278 146.976C325.945 146.976 326.509 146.759 326.968 146.326C327.427 145.893 327.653 145.355 327.644 144.714V144.038C327.011 144.775 326.188 145.143 325.174 145.143ZM325.291 139.189C324.641 139.189 324.091 139.423 323.64 139.891C323.198 140.35 322.977 140.927 322.977 141.62C322.977 142.313 323.198 142.894 323.64 143.362C324.099 143.821 324.65 144.051 325.291 144.051C325.95 144.051 326.5 143.821 326.942 143.362C327.393 142.903 327.618 142.322 327.618 141.62C327.618 140.918 327.393 140.342 326.942 139.891C326.5 139.423 325.95 139.189 325.291 139.189Z" fill="white"/>
<path d="M476.155 5.992H472.749V4.9H480.731V5.992H477.325V14H476.155V5.992ZM482.005 14V4.25H483.097V8.371C483.634 7.52167 484.44 7.097 485.515 7.097C486.295 7.097 486.949 7.35267 487.478 7.864C487.998 8.36667 488.258 9.008 488.258 9.788V14H487.166V10.074C487.166 9.528 486.98 9.06867 486.607 8.696C486.234 8.32333 485.771 8.137 485.216 8.137C484.618 8.137 484.115 8.32767 483.708 8.709C483.301 9.09033 483.097 9.554 483.097 10.1V14H482.005ZM491.171 14H490.079V7.24H491.171V14ZM490.079 6.135C489.941 5.98767 489.871 5.80567 489.871 5.589C489.871 5.37233 489.941 5.19467 490.079 5.056C490.227 4.90867 490.409 4.835 490.625 4.835C490.842 4.835 491.024 4.90867 491.171 5.056C491.319 5.19467 491.392 5.37233 491.392 5.589C491.392 5.80567 491.319 5.98767 491.171 6.135C491.024 6.27367 490.842 6.343 490.625 6.343C490.409 6.343 490.227 6.27367 490.079 6.135ZM494.104 10.178V14H493.012V7.24H494.104V8.384C494.615 7.526 495.417 7.097 496.509 7.097H496.691V8.306C496.552 8.254 496.392 8.228 496.21 8.228C495.612 8.228 495.114 8.41433 494.715 8.787C494.308 9.16833 494.104 9.632 494.104 10.178ZM500.546 7.097C501.56 7.097 502.384 7.46533 503.016 8.202V4.25H504.108V14H503.016V13.038C502.384 13.7747 501.56 14.143 500.546 14.143C499.602 14.143 498.809 13.8093 498.167 13.142C497.535 12.4747 497.218 11.634 497.218 10.62C497.218 9.606 497.535 8.76967 498.167 8.111C498.8 7.435 499.593 7.097 500.546 7.097ZM500.663 8.189C500.013 8.189 499.463 8.423 499.012 8.891C498.57 9.35033 498.349 9.92667 498.349 10.62C498.349 11.3133 498.57 11.894 499.012 12.362C499.472 12.8213 500.022 13.051 500.663 13.051C501.322 13.051 501.872 12.8213 502.314 12.362C502.765 11.9027 502.99 11.322 502.99 10.62C502.99 9.918 502.765 9.34167 502.314 8.891C501.872 8.423 501.322 8.189 500.663 8.189ZM515.678 6.785L514.521 7.123C514.443 6.77633 514.217 6.486 513.845 6.252C513.481 6.00933 513.052 5.888 512.558 5.888C512.012 5.888 511.561 6.02233 511.206 6.291C510.85 6.551 510.673 6.88033 510.673 7.279C510.673 7.71233 510.915 8.05033 511.401 8.293C511.782 8.475 512.367 8.66567 513.156 8.865C513.797 9.02967 514.295 9.19867 514.651 9.372C515.483 9.762 515.92 10.4423 515.964 11.413C515.964 12.2277 515.652 12.8863 515.028 13.389C514.421 13.8917 513.632 14.143 512.662 14.143C511.786 14.143 511.041 13.9393 510.426 13.532C509.81 13.1333 509.42 12.6133 509.256 11.972L510.426 11.621C510.495 12.0197 510.738 12.3533 511.154 12.622C511.578 12.882 512.081 13.012 512.662 13.012C513.268 13.012 513.775 12.8733 514.183 12.596C514.59 12.31 514.794 11.946 514.794 11.504C514.794 11.0533 514.577 10.7153 514.144 10.49C513.762 10.2907 513.325 10.1303 512.831 10.009L512.285 9.866L511.778 9.71L511.245 9.528C511.219 9.51933 511.18 9.50633 511.128 9.489C511.084 9.463 511.028 9.437 510.959 9.411C510.889 9.37633 510.829 9.346 510.777 9.32C510.56 9.216 510.304 9.02967 510.01 8.761C509.715 8.46633 509.542 7.99833 509.49 7.357C509.49 6.58567 509.776 5.96167 510.348 5.485C510.928 4.99967 511.661 4.757 512.545 4.757C513.342 4.757 514.022 4.94767 514.586 5.329C515.158 5.70167 515.522 6.187 515.678 6.785ZM516.748 8.202V7.24H517.84V5.888H518.932V7.24H520.817V8.202H518.932V11.881C518.932 12.1843 519.023 12.44 519.205 12.648C519.395 12.8473 519.629 12.947 519.907 12.947H520.817V14H519.829C519.265 14 518.793 13.8093 518.412 13.428C518.03 13.0467 517.84 12.5743 517.84 12.011V8.202H516.748ZM528.726 10.997H522.915C522.993 11.6037 523.262 12.1107 523.721 12.518C524.172 12.9167 524.726 13.116 525.385 13.116C526.243 13.116 526.91 12.791 527.387 12.141L528.453 12.479C528.141 12.999 527.712 13.4063 527.166 13.701C526.629 13.9957 526.035 14.143 525.385 14.143C524.362 14.143 523.504 13.8093 522.811 13.142C522.126 12.466 521.784 11.6253 521.784 10.62C521.784 9.61467 522.118 8.77833 522.785 8.111C523.452 7.435 524.28 7.097 525.268 7.097C526.265 7.097 527.092 7.435 527.751 8.111C528.418 8.77833 528.752 9.61467 528.752 10.62C528.752 10.646 528.743 10.7717 528.726 10.997ZM522.928 10.113H527.621C527.517 9.53233 527.244 9.05133 526.802 8.67C526.369 8.29733 525.849 8.111 525.242 8.111C524.653 8.111 524.146 8.29733 523.721 8.67C523.296 9.04267 523.032 9.52367 522.928 10.113ZM531.238 16.925H530.146V7.24H531.238V8.202C531.87 7.46533 532.689 7.097 533.695 7.097C534.648 7.097 535.441 7.435 536.074 8.111C536.715 8.77833 537.036 9.61467 537.036 10.62C537.036 11.6167 536.715 12.4573 536.074 13.142C535.432 13.8093 534.639 14.143 533.695 14.143C532.689 14.143 531.87 13.7747 531.238 13.038V16.925ZM533.578 8.189C532.928 8.189 532.377 8.423 531.927 8.891C531.485 9.35033 531.264 9.92667 531.264 10.62C531.264 11.3133 531.485 11.894 531.927 12.362C532.386 12.8213 532.936 13.051 533.578 13.051C534.236 13.051 534.787 12.8213 535.229 12.362C535.679 11.9027 535.905 11.322 535.905 10.62C535.905 9.918 535.679 9.34167 535.229 8.891C534.787 8.423 534.236 8.189 533.578 8.189Z" fill="white"/>
<path d="M184.889 359.7H189.425V360.456H185.699V362.436H188.966V363.192H185.699V365.244H189.47V366H184.889V359.7ZM192.38 361.221C193.082 361.221 193.652 361.476 194.09 361.986V361.32H194.846V366H194.09V365.334C193.652 365.844 193.082 366.099 192.38 366.099C191.726 366.099 191.177 365.868 190.733 365.406C190.295 364.944 190.076 364.362 190.076 363.66C190.076 362.958 190.295 362.379 190.733 361.923C191.171 361.455 191.72 361.221 192.38 361.221ZM192.461 361.977C192.011 361.977 191.63 362.139 191.318 362.463C191.012 362.781 190.859 363.18 190.859 363.66C190.859 364.14 191.012 364.542 191.318 364.866C191.636 365.184 192.017 365.343 192.461 365.343C192.917 365.343 193.298 365.184 193.604 364.866C193.916 364.548 194.072 364.146 194.072 363.66C194.072 363.174 193.916 362.775 193.604 362.463C193.298 362.139 192.917 361.977 192.461 361.977ZM196.875 363.354V366H196.119V361.32H196.875V362.112C197.229 361.518 197.784 361.221 198.54 361.221H198.666V362.058C198.57 362.022 198.459 362.004 198.333 362.004C197.919 362.004 197.574 362.133 197.298 362.391C197.016 362.655 196.875 362.976 196.875 363.354ZM199.494 366V361.32H200.25V362.103C200.622 361.515 201.177 361.221 201.915 361.221C202.455 361.221 202.902 361.398 203.256 361.752C203.616 362.1 203.796 362.544 203.796 363.084V366H203.04V363.282C203.04 362.904 202.911 362.586 202.653 362.328C202.401 362.07 202.086 361.941 201.708 361.941C201.3 361.941 200.955 362.073 200.673 362.337C200.391 362.601 200.25 362.922 200.25 363.3V366H199.494ZM205.814 366H205.058V361.32H205.814V366ZM205.058 360.555C204.962 360.453 204.914 360.327 204.914 360.177C204.914 360.027 204.962 359.904 205.058 359.808C205.16 359.706 205.286 359.655 205.436 359.655C205.586 359.655 205.712 359.706 205.814 359.808C205.916 359.904 205.967 360.027 205.967 360.177C205.967 360.327 205.916 360.453 205.814 360.555C205.712 360.651 205.586 360.699 205.436 360.699C205.286 360.699 205.16 360.651 205.058 360.555ZM207.088 366V361.32H207.844V362.103C208.216 361.515 208.771 361.221 209.509 361.221C210.049 361.221 210.496 361.398 210.85 361.752C211.21 362.1 211.39 362.544 211.39 363.084V366H210.634V363.282C210.634 362.904 210.505 362.586 210.247 362.328C209.995 362.07 209.68 361.941 209.302 361.941C208.894 361.941 208.549 362.073 208.267 362.337C207.985 362.601 207.844 362.922 207.844 363.3V366H207.088ZM214.713 366.099C214.059 366.099 213.51 365.868 213.066 365.406C212.628 364.944 212.409 364.362 212.409 363.66C212.409 362.958 212.628 362.379 213.066 361.923C213.504 361.455 214.053 361.221 214.713 361.221C215.415 361.221 215.985 361.476 216.423 361.986V361.32H217.179V365.802C217.179 366.468 216.951 367.02 216.495 367.458C216.033 367.902 215.472 368.124 214.812 368.124C214.356 368.124 213.927 368.01 213.525 367.782C213.135 367.554 212.85 367.266 212.67 366.918L213.426 366.675C213.552 366.879 213.738 367.044 213.984 367.17C214.236 367.302 214.503 367.368 214.785 367.368C215.247 367.368 215.637 367.218 215.955 366.918C216.273 366.618 216.429 366.246 216.423 365.802V365.334C215.985 365.844 215.415 366.099 214.713 366.099ZM214.794 361.977C214.344 361.977 213.963 362.139 213.651 362.463C213.345 362.781 213.192 363.18 213.192 363.66C213.192 364.14 213.345 364.542 213.651 364.866C213.969 365.184 214.35 365.343 214.794 365.343C215.25 365.343 215.631 365.184 215.937 364.866C216.249 364.548 216.405 364.146 216.405 363.66C216.405 363.174 216.249 362.775 215.937 362.463C215.631 362.139 215.25 361.977 214.794 361.977Z" fill="white"/>
<path d="M406.123 363.005L405.322 363.239C405.268 362.999 405.112 362.798 404.854 362.636C404.602 362.468 404.305 362.384 403.963 362.384C403.585 362.384 403.273 362.477 403.027 362.663C402.781 362.843 402.658 363.071 402.658 363.347C402.658 363.647 402.826 363.881 403.162 364.049C403.426 364.175 403.831 364.307 404.377 364.445C404.821 364.559 405.166 364.676 405.412 364.796C405.988 365.066 406.291 365.537 406.321 366.209C406.321 366.773 406.105 367.229 405.673 367.577C405.253 367.925 404.707 368.099 404.035 368.099C403.429 368.099 402.913 367.958 402.487 367.676C402.061 367.4 401.791 367.04 401.677 366.596L402.487 366.353C402.535 366.629 402.703 366.86 402.991 367.046C403.285 367.226 403.633 367.316 404.035 367.316C404.455 367.316 404.806 367.22 405.088 367.028C405.37 366.83 405.511 366.578 405.511 366.272C405.511 365.96 405.361 365.726 405.061 365.57C404.797 365.432 404.494 365.321 404.152 365.237L403.774 365.138L403.423 365.03L403.054 364.904C403.036 364.898 403.009 364.889 402.973 364.877C402.943 364.859 402.904 364.841 402.856 364.823C402.808 364.799 402.766 364.778 402.73 364.76C402.58 364.688 402.403 364.559 402.199 364.373C401.995 364.169 401.875 363.845 401.839 363.401C401.839 362.867 402.037 362.435 402.433 362.105C402.835 361.769 403.342 361.601 403.954 361.601C404.506 361.601 404.977 361.733 405.367 361.997C405.763 362.255 406.015 362.591 406.123 363.005ZM406.864 363.986V363.32H407.62V362.384H408.376V363.32H409.681V363.986H408.376V366.533C408.376 366.743 408.439 366.92 408.565 367.064C408.697 367.202 408.859 367.271 409.051 367.271H409.681V368H408.997C408.607 368 408.28 367.868 408.016 367.604C407.752 367.34 407.62 367.013 407.62 366.623V363.986H406.864ZM412.655 363.221C413.357 363.221 413.927 363.476 414.365 363.986V363.32H415.121V368H414.365V367.334C413.927 367.844 413.357 368.099 412.655 368.099C412.001 368.099 411.452 367.868 411.008 367.406C410.57 366.944 410.351 366.362 410.351 365.66C410.351 364.958 410.57 364.379 411.008 363.923C411.446 363.455 411.995 363.221 412.655 363.221ZM412.736 363.977C412.286 363.977 411.905 364.139 411.593 364.463C411.287 364.781 411.134 365.18 411.134 365.66C411.134 366.14 411.287 366.542 411.593 366.866C411.911 367.184 412.292 367.343 412.736 367.343C413.192 367.343 413.573 367.184 413.879 366.866C414.191 366.548 414.347 366.146 414.347 365.66C414.347 365.174 414.191 364.775 413.879 364.463C413.573 364.139 413.192 363.977 412.736 363.977ZM416.394 368V361.25H417.15V368H416.394ZM420.237 368H419.292L417.186 365.579L419.112 363.32H420.039L418.122 365.579L420.237 368ZM421.782 368H421.026V363.32H421.782V368ZM421.026 362.555C420.93 362.453 420.882 362.327 420.882 362.177C420.882 362.027 420.93 361.904 421.026 361.808C421.128 361.706 421.254 361.655 421.404 361.655C421.554 361.655 421.68 361.706 421.782 361.808C421.884 361.904 421.935 362.027 421.935 362.177C421.935 362.327 421.884 362.453 421.782 362.555C421.68 362.651 421.554 362.699 421.404 362.699C421.254 362.699 421.128 362.651 421.026 362.555ZM423.056 368V363.32H423.812V364.103C424.184 363.515 424.739 363.221 425.477 363.221C426.017 363.221 426.464 363.398 426.818 363.752C427.178 364.1 427.358 364.544 427.358 365.084V368H426.602V365.282C426.602 364.904 426.473 364.586 426.215 364.328C425.963 364.07 425.648 363.941 425.27 363.941C424.862 363.941 424.517 364.073 424.235 364.337C423.953 364.601 423.812 364.922 423.812 365.3V368H423.056ZM430.681 368.099C430.027 368.099 429.478 367.868 429.034 367.406C428.596 366.944 428.377 366.362 428.377 365.66C428.377 364.958 428.596 364.379 429.034 363.923C429.472 363.455 430.021 363.221 430.681 363.221C431.383 363.221 431.953 363.476 432.391 363.986V363.32H433.147V367.802C433.147 368.468 432.919 369.02 432.463 369.458C432.001 369.902 431.44 370.124 430.78 370.124C430.324 370.124 429.895 370.01 429.493 369.782C429.103 369.554 428.818 369.266 428.638 368.918L429.394 368.675C429.52 368.879 429.706 369.044 429.952 369.17C430.204 369.302 430.471 369.368 430.753 369.368C431.215 369.368 431.605 369.218 431.923 368.918C432.241 368.618 432.397 368.246 432.391 367.802V367.334C431.953 367.844 431.383 368.099 430.681 368.099ZM430.762 363.977C430.312 363.977 429.931 364.139 429.619 364.463C429.313 364.781 429.16 365.18 429.16 365.66C429.16 366.14 429.313 366.542 429.619 366.866C429.937 367.184 430.318 367.343 430.762 367.343C431.218 367.343 431.599 367.184 431.905 366.866C432.217 366.548 432.373 366.146 432.373 365.66C432.373 365.174 432.217 364.775 431.905 364.463C431.599 364.139 431.218 363.977 430.762 363.977Z" fill="white"/>
</svg>
